<svg xmlns="http://www.w3.org/2000/svg" viewBox="0 0 126.47 162.25"><defs><style>.cls-1{fill:#0090ff;}.cls-2{fill:#006bd6;}.cls-3{fill:#194386;}.cls-4{fill:#fff;}.cls-5{fill:#d0d0d0;}.cls-6{fill:#f7f8f9;}</style></defs><title>404</title><g id="Layer_2" data-name="Layer 2"><g id="Capa_1" data-name="Capa 1"><circle class="cls-1" cx="62.93" cy="99.32" r="62.93"/><path class="cls-2" d="M62.93,146.19A67.64,67.64,0,0,1,.16,103.75a62.93,62.93,0,0,0,125.55,0A67.64,67.64,0,0,1,62.93,146.19Z"/><path class="cls-3" d="M47.72,98.15a2.74,2.74,0,0,1-1.94-.8L32,83.59a2.75,2.75,0,1,1,3.88-3.88L49.66,93.46a2.75,2.75,0,0,1-1.94,4.69Z"/><path class="cls-3" d="M34,98.15A2.75,2.75,0,0,1,32,93.46L45.78,79.71a2.75,2.75,0,1,1,3.88,3.88L35.92,97.34A2.74,2.74,0,0,1,34,98.15Z"/><path class="cls-3" d="M91.9,98.15a2.74,2.74,0,0,1-1.94-.8L76.2,83.59a2.75,2.75,0,0,1,3.88-3.88L93.84,93.46a2.75,2.75,0,0,1-1.94,4.69Z"/><path class="cls-3" d="M78.15,98.15a2.75,2.75,0,0,1-1.94-4.69L90,79.71a2.75,2.75,0,0,1,3.88,3.88L80.09,97.34A2.74,2.74,0,0,1,78.15,98.15Z"/><path class="cls-4" d="M66.38,117.37v12.24a7.51,7.51,0,1,0,15,0v-6.5A31.5,31.5,0,0,0,66.38,117.37Z"/><path class="cls-2" d="M40.56,129.2a2.75,2.75,0,0,1-1.45-5.08c6.6-4.11,15.16-6.37,24.09-6.39h.08c9,0,17.33,2.28,23.55,6.44a2.75,2.75,0,0,1-3.05,4.57c-11.09-7.41-29.82-7.38-41.77,0A2.73,2.73,0,0,1,40.56,129.2Z"/><path class="cls-5" d="M81.39,123.12a31.5,31.5,0,0,0-15-5.75v6.37a31.5,31.5,0,0,1,15,5.75Z"/><path class="cls-3" d="M85.31,129.2a2.74,2.74,0,0,1-1.94-.8,28.93,28.93,0,0,0-40.86,0,2.75,2.75,0,0,1-3.88-3.88,34.43,34.43,0,0,1,48.63,0,2.75,2.75,0,0,1-1.94,4.69Z"/><path class="cls-6" d="M117.22,23.42v.25s0,.06,0,.14,0,.3-.07.47A5.48,5.48,0,0,1,116,26.54a15.85,15.85,0,0,1-6.46,4.26A61.42,61.42,0,0,1,98.75,34c-4.24.88-9.05,1.59-14.32,2.15-2.63.3-5.38.51-8.22.74q-2.13.16-4.33.28c-1.47.08-3,.17-4.47.24s-3,.12-4.6.16-3.12.09-4.71.11c-3.18,0-6.42,0-9.73-.06A174.15,174.15,0,0,1,28,36a70.54,70.54,0,0,1-10.35-2.21,25.07,25.07,0,0,1-5.07-2.12,10.23,10.23,0,0,1-2.35-1.8,5.82,5.82,0,0,1-1-1.35l-.18-.41C9.07,28,9,27.83,9,27.68s-.07-.3-.1-.46l0-.23v-.12a1.41,1.41,0,0,1,0-.19v-.34c0-.18,0-.36.05-.54s.06-.3.1-.45l.14-.43a6.11,6.11,0,0,1,.81-1.5,10.8,10.8,0,0,1,2.16-2.16,26.13,26.13,0,0,1,4.84-2.85A66.94,66.94,0,0,1,27.05,14.8q2.56-.72,5.12-1.3t5.1-1.05c3.39-.64,6.76-1.14,10.08-1.54s6.6-.71,9.81-.92q2.41-.16,4.77-.27c.81,0,1.55-.06,2.34-.08l2.32-.06c3.07,0,6,0,8.93.11s5.67.33,8.34.58,5.22.6,7.65,1,4.71.82,6.85,1.29,4.14,1,6,1.53a49.21,49.21,0,0,1,5,1.76,26.86,26.86,0,0,1,3.93,2,11.11,11.11,0,0,1,2.69,2.3,5.65,5.65,0,0,1,1.15,2.27,4.67,4.67,0,0,1,.1.71v.32Zm-2.9,0a3,3,0,0,0-.07-.33,2.71,2.71,0,0,0-.63-1,8.12,8.12,0,0,0-2-1.5,20.9,20.9,0,0,0-3.51-1.5,58.82,58.82,0,0,0-10.51-2.28c-2.08-.29-4.31-.53-6.67-.71s-4.85-.35-7.44-.45-5.31-.17-8.12-.22-5.71,0-8.7,0l-2.25,0-2.29.05q-2.3.05-4.65.15c-3.13.14-6.33.31-9.58.59A170.63,170.63,0,0,0,28,18.89a66.91,66.91,0,0,0-9.79,2.7,23.09,23.09,0,0,0-4.42,2.14,8,8,0,0,0-1.7,1.42,3.44,3.44,0,0,0-.52.77l-.08.19-.06.19a.53.53,0,0,1,0,.12l0,.32c0-.12,0,0,0,0v.14l0,.19,0,.2.07.2a3.35,3.35,0,0,0,.51.83,8,8,0,0,0,1.72,1.53,23.15,23.15,0,0,0,4.49,2.28,48.77,48.77,0,0,0,4.91,1.62q2.5.69,5,1.22a133.93,133.93,0,0,0,20.15,2.45c3.3.15,6.54.24,9.72.22q2.38,0,4.71-.07c1.55,0,3.08-.12,4.59-.2s3-.17,4.47-.29,2.91-.26,4.32-.41c2.83-.29,5.55-.69,8.16-1.09s5.08-.91,7.43-1.42,4.55-1.08,6.6-1.66a62.17,62.17,0,0,0,10.25-3.77,23.21,23.21,0,0,0,3.35-2,8,8,0,0,0,1.86-1.81,2.62,2.62,0,0,0,.48-1.13.27.27,0,0,1,0-.08.35.35,0,0,0,0-.08v-.18Z"/><circle class="cls-6" cx="31.25" cy="14.72" r="4.06" transform="translate(-0.91 2.11) rotate(-3.8)"/><circle class="cls-6" cx="86.9" cy="34.53" r="3.91" transform="translate(-2.1 5.84) rotate(-3.8)"/><path class="cls-5" d="M113,27.79l0,.15V28s0,.06,0,.13-.06.27-.1.43a5.06,5.06,0,0,1-1.18,2A14.64,14.64,0,0,1,105.42,34,56.73,56.73,0,0,1,95.2,36c-4,.48-8.46.76-13.34.86-2.44.07-5,.05-7.62,0q-2,0-4-.08c-1.36,0-2.74-.07-4.13-.13s-2.81-.13-4.24-.21-2.88-.16-4.34-.27c-2.93-.22-5.92-.47-8.95-.81a160.85,160.85,0,0,1-18.59-3,65.15,65.15,0,0,1-9.35-2.85,23.16,23.16,0,0,1-4.5-2.34,9.45,9.45,0,0,1-2-1.84,5.38,5.38,0,0,1-.78-1.32l-.14-.39c0-.13-.07-.27-.1-.41s0-.28-.06-.43V22.5a1.3,1.3,0,0,1,0-.17L13,22c0-.16.05-.33.09-.49s.08-.28.12-.41l.16-.39a5.64,5.64,0,0,1,.86-1.31,10,10,0,0,1,2.15-1.82,24.13,24.13,0,0,1,4.68-2.25,61.83,61.83,0,0,1,9.62-2.54q2.41-.46,4.81-.8t4.78-.57c3.17-.32,6.31-.52,9.4-.63a175.8,175.8,0,0,1,17.8.28c2.82.2,5.57.46,8.21.8s5.19.75,7.63,1.19,4.76,1,7,1.49,4.27,1.12,6.21,1.72a61.06,61.06,0,0,1,9.85,3.88,24.81,24.81,0,0,1,3.46,2.15,10.26,10.26,0,0,1,2.29,2.33,5.22,5.22,0,0,1,.88,2.18,4.31,4.31,0,0,1,0,.66v.29Zm-2.67-.21a2.78,2.78,0,0,0,0-.31,2.51,2.51,0,0,0-.5-1,7.5,7.5,0,0,0-1.74-1.54A19.31,19.31,0,0,0,105,23.09a54.33,54.33,0,0,0-9.49-2.92c-1.89-.43-3.93-.82-6.08-1.18s-4.43-.7-6.82-1-4.87-.57-7.45-.84-5.25-.49-8-.69L65,16.33l-2.11-.13q-2.12-.13-4.29-.23c-2.89-.11-5.85-.21-8.86-.21a157.59,157.59,0,0,0-18.47.89,61.8,61.8,0,0,0-9.22,1.72A21.32,21.32,0,0,0,17.85,20a7.42,7.42,0,0,0-1.67,1.18,3.18,3.18,0,0,0-.54.67l-.09.17-.07.17a.49.49,0,0,1,0,.11l0,.3c0-.11,0,0,0,0v.31l0,.19,0,.19a3.1,3.1,0,0,0,.4.8,7.35,7.35,0,0,0,1.46,1.54,21.38,21.38,0,0,0,4,2.45,45,45,0,0,0,4.39,1.88q2.24.83,4.54,1.51a123.7,123.7,0,0,0,18.35,3.83c3,.4,6,.74,8.93,1q2.19.18,4.34.3c1.43.08,2.85.13,4.24.18s2.77.07,4.13.08,2.69,0,4,0c2.63,0,5.16-.2,7.59-.37s4.75-.44,6.95-.72S93,35,95,34.63A57.43,57.43,0,0,0,104.7,32a21.44,21.44,0,0,0,3.24-1.56,7.41,7.41,0,0,0,1.85-1.52,2.42,2.42,0,0,0,.53-1,.25.25,0,0,1,0-.08.32.32,0,0,0,0-.07v-.16Z"/><path class="cls-5" d="M65.1,9.1h-.24l-8.19-.85a2.29,2.29,0,0,1,.47-4.55l8.19.85A2.29,2.29,0,0,1,65.1,9.1Z"/><path class="cls-5" d="M58.11,12.52a2.29,2.29,0,0,1-1.83-3.66l2.5-3.34.36-3.47a2.29,2.29,0,0,1,4.55.47l-.49,4.73L59.95,11.6A2.28,2.28,0,0,1,58.11,12.52Z"/><path class="cls-5" d="M63,13A2.29,2.29,0,0,1,61,11.71l-2.3-4.93.49-4.73a2.29,2.29,0,0,1,4.55.47L63.34,6,65.1,9.77A2.29,2.29,0,0,1,63,13Z"/><path class="cls-5" d="M116,23.51a2,2,0,0,1-.13-4l8.49-.56a2,2,0,0,1,.27,4l-8.49.56Z"/><path class="cls-5" d="M117.94,27.64a2,2,0,0,1-1.79-2.93l2-3.92-.25-3.69a2,2,0,1,1,4-.27l.32,4.8-2.52,4.91A2,2,0,0,1,117.94,27.64Z"/><path class="cls-5" d="M123,27.3a2,2,0,0,1-1.66-.87l-3.15-4.53-.32-4.8a2,2,0,1,1,4-.27l.25,3.69,2.51,3.62A2,2,0,0,1,123,27.3Z"/><path class="cls-5" d="M2.85,30.84a1.82,1.82,0,0,1-.12-3.64l5.66-.38a1.82,1.82,0,0,1,.24,3.64L3,30.84Z"/><path class="cls-5" d="M4.17,33.6a1.82,1.82,0,0,1-1.62-2.65l1.28-2.49-.15-2.33a1.82,1.82,0,1,1,3.64-.24l.22,3.33L5.8,32.6A1.82,1.82,0,0,1,4.17,33.6Z"/><path class="cls-5" d="M7.57,33.37a1.82,1.82,0,0,1-1.5-.78L3.9,29.45l-.22-3.33a1.82,1.82,0,1,1,3.64-.24l.15,2.33,1.6,2.3a1.82,1.82,0,0,1-1.5,2.86Z"/><circle class="cls-5" cx="27.19" cy="31.55" r="2.98" transform="translate(-2.03 1.87) rotate(-3.8)"/><circle class="cls-5" cx="94.21" cy="15.94" r="3.81" transform="translate(-0.85 6.29) rotate(-3.8)"/><ellipse class="cls-5" cx="73.88" cy="126.45" rx="0.71" ry="3.91"/></g></g></svg>