<?xml version="1.0" encoding="UTF-8"?>
<svg width="40px" height="40px" viewBox="0 0 40 40" version="1.1" xmlns="http://www.w3.org/2000/svg" xmlns:xlink="http://www.w3.org/1999/xlink">
    <!-- Generator: Sketch 51.2 (57519) - http://www.bohemiancoding.com/sketch -->
    <title>double arrow_left</title>
    <desc>Created with Sketch.</desc>
    <defs></defs>
    <g id="double-arrow_left" stroke="none" stroke-width="1" fill="none" fill-rule="evenodd">
        <g id="Group" transform="translate(2.000000, 4.000000)" fill="#0090FF" fill-rule="nonzero">
            <g id="arrow-point-to-right-copy" transform="translate(9.132743, 16.000000) scale(1, -1) rotate(180.000000) translate(-9.132743, -16.000000) ">
                <path d="M17.5887434,17.5781947 L3.8339115,31.3326018 C2.95893805,32.208 1.54031858,32.208 0.665769911,31.3326018 C-0.208849558,30.4579823 -0.208849558,29.0394336 0.665769911,28.164885 L12.8366726,15.9943363 L0.666123893,3.82421239 C-0.208495576,2.94923894 -0.208495576,1.53083186 0.666123893,0.656212389 C1.54074336,-0.218761062 2.95929204,-0.218761062 3.83426549,0.656212389 L17.5890973,14.4108319 C18.0264071,14.848354 18.2448142,15.4211681 18.2448142,15.9942655 C18.2448142,16.567646 18.0259823,17.140885 17.5887434,17.5781947 Z" id="Shape"></path>
            </g>
            <g id="arrow-point-to-right-copy-2" transform="translate(27.132743, 16.000000) scale(1, -1) rotate(180.000000) translate(-27.132743, -16.000000) translate(18.000000, 0.000000)">
                <path d="M17.5887434,17.5781947 L3.8339115,31.3326018 C2.95893805,32.208 1.54031858,32.208 0.665769911,31.3326018 C-0.208849558,30.4579823 -0.208849558,29.0394336 0.665769911,28.164885 L12.8366726,15.9943363 L0.666123893,3.82421239 C-0.208495576,2.94923894 -0.208495576,1.53083186 0.666123893,0.656212389 C1.54074336,-0.218761062 2.95929204,-0.218761062 3.83426549,0.656212389 L17.5890973,14.4108319 C18.0264071,14.848354 18.2448142,15.4211681 18.2448142,15.9942655 C18.2448142,16.567646 18.0259823,17.140885 17.5887434,17.5781947 Z" id="Shape"></path>
            </g>
        </g>
    </g>
</svg>