<?xml version="1.0" encoding="UTF-8"?>
<svg width="72px" height="72px" viewBox="0 0 72 72" version="1.1" xmlns="http://www.w3.org/2000/svg" xmlns:xlink="http://www.w3.org/1999/xlink">
    <!-- Generator: Sketch 49.3 (51167) - http://www.bohemiancoding.com/sketch -->
    <title>close_button</title>
    <desc>Created with Sketch.</desc>
    <defs></defs>
    <g id="close_button" stroke="none" stroke-width="1" fill="none" fill-rule="evenodd">
        <g id="close-copy" transform="translate(4.000000, 4.000000)" fill="#0090FF" fill-rule="nonzero">
            <path d="M32,63.8340741 C19.1190799,63.8408983 7.50346792,56.0846954 2.57322983,44.1846576 C-2.35700826,32.2846197 0.369881928,18.586255 9.48148148,9.48148148 C21.9181159,-2.95515257 42.0818839,-2.95515242 54.5185182,9.48148182 C66.9551524,21.9181161 66.9551526,42.0818841 54.5185185,54.5185185 C48.5576661,60.5064471 40.4490433,63.8608563 32,63.8340741 Z M32,2.5362963 C20.0820681,2.53502536 9.3370883,9.71364129 4.77612124,20.7243035 C0.215154188,31.7349657 2.73655844,44.4089406 11.1644444,52.8355556 C16.6900884,58.3620329 24.1849701,61.4668456 32,61.4668456 C39.8150299,61.4668456 47.3099116,58.3620329 52.8355556,52.8355556 C61.2634416,44.4089406 63.7848458,31.7349657 59.2238788,20.7243035 C54.6629117,9.71364129 43.9179319,2.53502536 32,2.5362963 Z" id="Shape"></path>
            <rect id="Rectangle-path" transform="translate(32.009919, 31.995810) rotate(-45.000000) translate(-32.009919, -31.995810) " x="15.802512" y="30.8106246" width="32.4148148" height="2.37037037" rx="1.18518519"></rect>
            <rect id="Rectangle-path" transform="translate(32.001539, 31.995810) rotate(-45.000000) translate(-32.001539, -31.995810) " x="30.8163537" y="15.7884023" width="2.37037037" height="32.4148148" rx="1.18518519"></rect>
        </g>
    </g>
</svg>