<?xml version="1.0" encoding="iso-8859-1"?>
<!-- Generator: Adobe Illustrator 19.0.0, SVG Export Plug-In . SVG Version: 6.00 Build 0)  -->
<svg xmlns="http://www.w3.org/2000/svg" xmlns:xlink="http://www.w3.org/1999/xlink" version="1.1" id="Capa_1" x="0px" y="0px" viewBox="0 0 512 512" style="enable-background:new 0 0 512 512;" xml:space="preserve" width="512px" height="512px">
<g>
	<g>
		<path d="M259.123,60.554c-32.221-32.22-76.874-48.135-122.511-43.662c-34.412,3.373-67.039,18.914-91.871,43.758    C19.915,85.49,4.384,118.124,1.009,152.543c-3.342,34.085,4.393,67.083,22.392,95.711L1.356,297.855    c-2.628,5.913-1.37,12.689,3.206,17.265c2.988,2.988,6.914,4.561,10.926,4.561c2.131,0,4.287-0.444,6.337-1.356l49.601-22.045    c28.629,17.998,61.63,25.734,95.712,22.391c9.079-0.891,18.129-2.632,26.897-5.178c3.978-1.155,6.267-5.315,5.112-9.293    c-1.156-3.977-5.316-6.265-9.295-5.111c-7.882,2.288-16.017,3.854-24.18,4.654c-31.994,3.141-62.916-4.541-89.424-22.207    c-2.139-1.425-4.858-1.657-7.205-0.612l-53.313,23.694c-0.178,0.08-0.318,0.142-0.565-0.105c-0.247-0.247-0.184-0.387-0.105-0.565    l23.695-53.313c1.043-2.348,0.812-5.067-0.612-7.205C20.478,216.922,12.8,186,15.937,154.007    c3.037-30.972,17.034-60.361,39.414-82.752c22.383-22.395,51.762-36.399,82.724-39.434c41.153-4.033,81.405,10.305,110.44,39.34    c29.036,29.035,43.375,69.289,39.342,110.44c-0.404,4.123,2.61,7.792,6.733,8.196c4.133,0.405,7.792-2.611,8.196-6.733    C307.26,137.428,291.344,92.775,259.123,60.554z" fill="#cccccc"/>
	</g>
</g>
<g>
	<g>
		<path d="M231.976,160.281h-80.077c-4.142,0-7.5,3.358-7.5,7.5c0,4.142,3.358,7.5,7.5,7.5h80.077c4.142,0,7.5-3.358,7.5-7.5    C239.476,163.639,236.118,160.281,231.976,160.281z" fill="#cccccc"/>
	</g>
</g>
<g>
	<g>
		<path d="M207.953,120.242h-56.054c-4.142,0-7.5,3.358-7.5,7.5c0,4.142,3.358,7.5,7.5,7.5h56.054c4.142,0,7.5-3.358,7.5-7.5    C215.453,123.6,212.095,120.242,207.953,120.242z" fill="#cccccc"/>
	</g>
</g>
<g>
	<g>
		<path d="M231.976,200.319h-80.077c-4.142,0-7.5,3.358-7.5,7.5c0,4.142,3.358,7.5,7.5,7.5h80.077c4.142,0,7.5-3.358,7.5-7.5    C239.476,203.677,236.118,200.319,231.976,200.319z" fill="#cccccc"/>
	</g>
</g>
<g>
	<g>
		<path d="M510.644,474.025l-22.045-49.602c17.998-28.628,25.733-61.627,22.392-95.711c-3.375-34.418-18.907-67.052-43.733-91.893    c-24.833-24.846-57.46-40.385-91.871-43.758c-45.63-4.468-90.289,11.441-122.511,43.662    c-32.221,32.221-48.136,76.874-43.664,122.51c3.373,34.412,18.913,67.04,43.757,91.873c24.84,24.827,57.475,40.358,91.893,43.734    c34.084,3.341,67.083-4.392,95.712-22.391l49.6,22.045c2.051,0.912,4.206,1.355,6.337,1.355c4.012,0,7.939-1.573,10.927-4.561    C512.014,486.714,513.272,479.937,510.644,474.025z M496.831,480.682c-0.247,0.246-0.387,0.184-0.565,0.105l-53.313-23.694    c-0.974-0.433-2.012-0.646-3.045-0.646c-1.458,0-2.909,0.425-4.16,1.259c-26.508,17.666-57.432,25.345-89.424,22.207    c-30.973-3.037-60.361-17.036-82.752-39.415c-22.395-22.383-36.398-51.763-39.433-82.725    c-4.033-41.151,10.307-81.404,39.342-110.44c29.035-29.035,69.289-43.375,110.44-39.34c30.963,3.035,60.342,17.039,82.724,39.434    c22.38,22.392,36.377,51.78,39.414,82.751c3.137,31.994-4.542,62.916-22.207,89.423c-1.425,2.138-1.656,4.857-0.612,7.205    l23.695,53.313C497.015,480.295,497.078,480.435,496.831,480.682z" fill="#cccccc"/>
	</g>
</g>
<g>
	<g>
		<path d="M448.184,336.45H272.015c-4.142,0-7.5,3.358-7.5,7.5c0,4.142,3.358,7.5,7.5,7.5h176.169c4.142,0,7.5-3.358,7.5-7.5    C455.684,339.808,452.326,336.45,448.184,336.45z" fill="#cccccc"/>
	</g>
</g>
<g>
	<g>
		<path d="M424.161,296.412H296.037c-4.142,0-7.5,3.358-7.5,7.5c0,4.142,3.358,7.5,7.5,7.5h128.124c4.142,0,7.5-3.358,7.5-7.5    C431.661,299.77,428.303,296.412,424.161,296.412z" fill="#cccccc"/>
	</g>
</g>
<g>
	<g>
		<path d="M424.161,376.488H296.037c-4.142,0-7.5,3.358-7.5,7.5c0,4.142,3.358,7.5,7.5,7.5h128.124c4.142,0,7.5-3.358,7.5-7.5    C431.661,379.846,428.303,376.488,424.161,376.488z" fill="#cccccc"/>
	</g>
</g>
<g>
	<g>
		<path d="M126.872,146.114c-2.231-12.71-12.666-23.147-25.377-25.377c-9.314-1.634-18.761,0.872-25.914,6.879    c-7.156,6.009-11.26,14.811-11.26,24.148c0,4.142,3.358,7.5,7.5,7.5c4.142,0,7.5-3.358,7.5-7.5c0-4.894,2.153-9.509,5.906-12.661    c3.806-3.196,8.66-4.471,13.674-3.592c6.504,1.142,12.053,6.691,13.195,13.195c1.522,8.669-3.667,16.859-12.068,19.049    c-6.989,1.821-11.684,7.698-11.684,14.623v1.417c0,4.142,3.358,7.5,7.5,7.5c4.142,0,7.5-3.358,7.5-7.5v-1.302    c0.075-0.063,0.227-0.16,0.467-0.223C119.843,178.093,129.758,162.549,126.872,146.114z" fill="#cccccc"/>
	</g>
</g>
<g>
	<g>
		<path d="M95.926,200.319h-0.08c-4.142,0-7.46,3.358-7.46,7.5c0,4.142,3.398,7.5,7.54,7.5c4.142,0,7.5-3.358,7.5-7.5    C103.426,203.677,100.068,200.319,95.926,200.319z" fill="#cccccc"/>
	</g>
</g>
<g>
</g>
<g>
</g>
<g>
</g>
<g>
</g>
<g>
</g>
<g>
</g>
<g>
</g>
<g>
</g>
<g>
</g>
<g>
</g>
<g>
</g>
<g>
</g>
<g>
</g>
<g>
</g>
<g>
</g>
</svg>
