<?xml version="1.0" encoding="iso-8859-1"?>
<svg xmlns="http://www.w3.org/2000/svg" xmlns:xlink="http://www.w3.org/1999/xlink" version="1.1" viewBox="0 0 20.764 20.764" enable-background="new 0 0 20.764 20.764" width="512px" height="512px">
  <g>
    <path d="m19.764,2.382h-15.382c-0.379,0-0.725,0.214-0.894,0.553l-3.277,6.552c-0.281,0.563-0.281,1.226 1.38778e-16,1.789l3.276,6.553c0.169,0.339 0.516,0.553 0.894,0.553h15.382c0.552,0 1-0.448 1-1v-14c0.001-0.552-0.447-1-0.999-1zm-11.5,3.5c1.105,0 2,0.895 2,2 0,1.105-0.895,2-2,2s-2-0.895-2-2c8.88178e-16-1.105 0.895-2 2-2zm6,10c-1.105,0-2-0.895-2-2 0-1.105 0.895-2 2-2s2,0.895 2,2c0,1.105-0.896,2-2,2zm-6.586,0l-1.414-1.414 8.586-8.586 1.414,1.414-8.586,8.586z" fill="#666666"/>
  </g>
</svg>
