<?xml version="1.0" encoding="UTF-8"?>
<svg width="72px" height="72px" viewBox="0 0 72 72" version="1.1" xmlns="http://www.w3.org/2000/svg" xmlns:xlink="http://www.w3.org/1999/xlink">
    <!-- Generator: Sketch 49.3 (51167) - http://www.bohemiancoding.com/sketch -->
    <title>green_coupon</title>
    <desc>Created with Sketch.</desc>
    <defs></defs>
    <g id="green_coupon" stroke="none" stroke-width="1" fill="none" fill-rule="evenodd">
        <g id="001-coupon" transform="translate(5.000000, 16.000000)" fill="#05D27E" fill-rule="nonzero">
            <path d="M35.0951087,7.33695652 C32.0609103,7.33695652 29.5923913,9.80547554 29.5923913,12.8396739 C29.5923913,15.8738723 32.0609103,18.3423913 35.0951087,18.3423913 C38.1293071,18.3423913 40.5978261,15.8738723 40.5978261,12.8396739 C40.5978261,9.80547554 38.1293071,7.33695652 35.0951087,7.33695652 Z M35.0951087,14.673913 C34.0837092,14.673913 33.2608696,13.8510734 33.2608696,12.8396739 C33.2608696,11.8282745 34.0837092,11.0054348 35.0951087,11.0054348 C36.1065082,11.0054348 36.9293478,11.8282745 36.9293478,12.8396739 C36.9293478,13.8510734 36.1065082,14.673913 35.0951087,14.673913 Z" id="Shape"></path>
            <path d="M49.7690217,22.0108696 C46.7348234,22.0108696 44.2663043,24.4793886 44.2663043,27.513587 C44.2663043,30.5477853 46.7348234,33.0163043 49.7690217,33.0163043 C52.8032201,33.0163043 55.2717391,30.5477853 55.2717391,27.513587 C55.2717391,24.4793886 52.8032201,22.0108696 49.7690217,22.0108696 Z M49.7690217,29.3478261 C48.7576223,29.3478261 47.9347826,28.5249864 47.9347826,27.513587 C47.9347826,26.5021875 48.7576223,25.6793478 49.7690217,25.6793478 C50.7804212,25.6793478 51.6032609,26.5021875 51.6032609,27.513587 C51.6032609,28.5249864 50.7804212,29.3478261 49.7690217,29.3478261 Z" id="Shape"></path>
            <path d="M50.786413,7.64498641 C49.9437636,7.08322011 48.8047011,7.31091033 48.2428125,8.15380435 L33.5688995,30.1646739 C33.0070109,31.0074457 33.2348234,32.1462636 34.0777174,32.7082745 C34.9204891,33.2700408 36.0593071,33.0424728 36.6213179,32.1994565 L51.295231,10.188587 C51.8571196,9.34569293 51.6293071,8.206875 50.786413,7.64498641 Z" id="Shape"></path>
            <path d="M60.7744565,0 L1.83423913,0 C0.82125,0 0,0.82125 0,1.83423913 L0,12.8396739 C0,13.852663 0.82125,14.673913 1.83423913,14.673913 C4.8684375,14.673913 7.33695652,17.1424321 7.33695652,20.1766304 C7.33695652,23.2108288 4.8684375,25.6793478 1.83423913,25.6793478 C0.82125,25.6793478 0,26.5005978 0,27.513587 L0,38.5190217 C0,39.5320109 0.82125,40.3532609 1.83423913,40.3532609 L60.7744565,40.3532609 C61.7874457,40.3532609 62.6086957,39.5320109 62.6086957,38.5190217 L62.6086957,1.83423913 C62.6086957,0.82125 61.7874457,0 60.7744565,0 Z M58.9402174,36.6847826 L18.3423913,36.6847826 L18.3423913,34.8505435 C18.3423913,33.8375543 17.5211413,33.0163043 16.5081522,33.0163043 C15.495163,33.0163043 14.673913,33.8375543 14.673913,34.8505435 L14.673913,36.6847826 L3.66847826,36.6847826 L3.66847826,29.1636685 C7.84944293,28.311481 11.0054348,24.6055842 11.0054348,20.1766304 C11.0054348,15.7476766 7.84944293,12.0419022 3.66847826,11.1897147 L3.66847826,3.66847826 L14.8267663,3.66847826 L14.8267663,5.50271739 C14.8267663,6.51570652 15.6480163,7.33695652 16.6610054,7.33695652 C17.6739946,7.33695652 18.4952446,6.51570652 18.4952446,5.50271739 L18.4952446,3.66847826 L58.9402174,3.66847826 L58.9402174,36.6847826 Z" id="Shape"></path>
            <path d="M16.5081522,22.0108696 C15.495163,22.0108696 14.673913,22.8321196 14.673913,23.8451087 L14.673913,27.513587 C14.673913,28.5265761 15.495163,29.3478261 16.5081522,29.3478261 C17.5211413,29.3478261 18.3423913,28.5265761 18.3423913,27.513587 L18.3423913,23.8451087 C18.3423913,22.8321196 17.5211413,22.0108696 16.5081522,22.0108696 Z" id="Shape"></path>
            <path d="M16.5081522,11.0054348 C15.495163,11.0054348 14.673913,11.8266848 14.673913,12.8396739 L14.673913,16.5081522 C14.673913,17.5211413 15.495163,18.3423913 16.5081522,18.3423913 C17.5211413,18.3423913 18.3423913,17.5211413 18.3423913,16.5081522 L18.3423913,12.8396739 C18.3423913,11.8266848 17.5211413,11.0054348 16.5081522,11.0054348 Z" id="Shape"></path>
        </g>
    </g>
</svg>