<?xml version="1.0" encoding="iso-8859-1"?>
<!-- Generator: Adobe Illustrator 19.0.0, SVG Export Plug-In . SVG Version: 6.00 Build 0)  -->
<svg xmlns="http://www.w3.org/2000/svg" xmlns:xlink="http://www.w3.org/1999/xlink" version="1.1" id="Layer_1" x="0px" y="0px" viewBox="0 0 511.999 511.999" style="enable-background:new 0 0 511.999 511.999;" xml:space="preserve" width="512px" height="512px">
<g>
	<g>
		<path d="M456.347,66.782c-78.946,0-133.478-25.577-191.087-63.978c-5.609-3.739-12.914-3.739-18.522,0    c-57.597,38.401-112.14,63.978-191.086,63.978c-9.217,0-16.696,7.479-16.696,16.696v175.327    c0,125.881,90.131,232.272,214.293,252.967c0.913,0.152,1.836,0.228,2.75,0.228c0.914,0,1.837-0.076,2.75-0.228    c124.162-20.696,214.293-127.087,214.293-252.967V83.477C473.043,74.26,465.565,66.782,456.347,66.782z M256,400.695    c-82.858,0-150.261-67.403-150.261-150.261S173.141,100.173,256,100.173S406.26,167.576,406.26,250.434    S338.858,400.695,256,400.695z" fill="#0090f0"/>
	</g>
</g>
<g>
	<g>
		<path d="M256,133.564c-64.445,0-116.87,52.424-116.87,116.87c0,26.769,9.141,51.387,24.334,71.111    c16.63-13.115,35.611-22.511,55.911-27.656c-14.919-11.176-24.594-28.991-24.594-49.021c0-33.75,27.468-61.217,61.217-61.217    c33.75,0,61.217,27.468,61.217,61.217c0,20.027-9.672,37.841-24.589,49.017c20.304,5.14,39.29,14.526,55.929,27.629    c15.181-19.721,24.312-44.327,24.312-71.081C372.869,185.989,320.445,133.564,256,133.564z" fill="#0090f0"/>
	</g>
</g>
<g>
</g>
<g>
</g>
<g>
</g>
<g>
</g>
<g>
</g>
<g>
</g>
<g>
</g>
<g>
</g>
<g>
</g>
<g>
</g>
<g>
</g>
<g>
</g>
<g>
</g>
<g>
</g>
<g>
</g>
</svg>
