<?xml version="1.0" encoding="iso-8859-1"?>
<!-- Generator: Adobe Illustrator 16.0.0, SVG Export Plug-In . SVG Version: 6.00 Build 0)  -->
<!DOCTYPE svg PUBLIC "-//W3C//DTD SVG 1.1//EN" "http://www.w3.org/Graphics/SVG/1.1/DTD/svg11.dtd">
<svg xmlns="http://www.w3.org/2000/svg" xmlns:xlink="http://www.w3.org/1999/xlink" version="1.1" id="Capa_1" x="0px" y="0px" width="512px" height="512px" viewBox="0 0 420 420" style="enable-background:new 0 0 420 420;" xml:space="preserve">
<g>
	<path d="M358.493,61.507C318.829,21.844,266.093,0,210,0S101.171,21.844,61.507,61.507C21.844,101.171,0,153.907,0,210   s21.844,108.829,61.507,148.493C101.171,398.156,153.907,420,210,420s108.829-21.844,148.493-61.507   C398.156,318.829,420,266.093,420,210S398.156,101.171,358.493,61.507z M19.691,210c0-57.782,25.891-109.624,66.673-144.555   l29.038,35.152C84.736,127.149,65.305,166.348,65.305,210c0,10.409,1.115,20.562,3.213,30.354l-42.554,18.154   C21.878,243.016,19.691,226.759,19.691,210z M154.667,392.095c-54.871-16.706-99.303-57.583-120.851-110.177l41.958-17.898   c14.557,36.041,43.228,64.914,79.124,79.754v0.016c-0.077-0.031-0.153-0.061-0.23-0.092L154.667,392.095L154.667,392.095z    M210,335.003c-68.927,0-125.003-56.076-125.003-125.003S141.073,84.997,210,84.997S335.003,141.073,335.003,210   S278.927,335.003,210,335.003z M354.192,197.988C348.066,123.802,285.739,65.305,210,65.305c-27.293,0-52.844,7.599-74.652,20.788   l-29.274-35.439C135.972,31.088,171.678,19.691,210,19.691c100.901,0,183.698,78.937,189.918,178.297H354.192z" fill="#666666"/>
</g>
<g>
</g>
<g>
</g>
<g>
</g>
<g>
</g>
<g>
</g>
<g>
</g>
<g>
</g>
<g>
</g>
<g>
</g>
<g>
</g>
<g>
</g>
<g>
</g>
<g>
</g>
<g>
</g>
<g>
</g>
</svg>
