<?xml version="1.0" encoding="utf-8"?>
<!-- Generated by IcoMoon.io -->
<!DOCTYPE svg PUBLIC "-//W3C//DTD SVG 1.1//EN" "http://www.w3.org/Graphics/SVG/1.1/DTD/svg11.dtd">
<svg xmlns="http://www.w3.org/2000/svg" xmlns:xlink="http://www.w3.org/1999/xlink" version="1.1" width="512px" height="512px" viewBox="0 0 16 16">
<path fill="#cccccc" d="M7.5 0c-4.1 0-7.5 3.4-7.5 7.5s3.4 7.5 7.5 7.5 7.5-3.4 7.5-7.5-3.4-7.5-7.5-7.5zM13.3 10.4c-0.2 0.5-0.5 0.9-0.9 1.3l-1.4-1.4c0.5-0.6 0.9-1.4 0.9-2.3h2c0 0.5-0.1 1-0.3 1.5l-0.9-0.4-0.4 0.9 1 0.4zM10.1 12.4l-0.9 0.4 0.4 0.9c-0.6 0.1-1.1 0.2-1.6 0.3v-2c0.9-0.1 1.6-0.4 2.3-0.9l1.4 1.4c-0.4 0.3-0.8 0.6-1.3 0.9l-0.3-1zM4.9 12.4l-0.4 0.9c-0.5-0.2-0.9-0.5-1.3-0.9l1.5-1.4c0.6 0.5 1.4 0.9 2.3 0.9v2c-0.5 0-1-0.1-1.5-0.3l0.4-0.9-1-0.3zM3.1 7h-2.1c0-0.5 0.1-1 0.3-1.5l0.9 0.4 0.4-0.9-0.9-0.4c0.2-0.5 0.5-0.9 0.9-1.3l1.4 1.4c-0.5 0.7-0.9 1.4-0.9 2.3zM4.9 2.6l0.9-0.4-0.3-0.9c0.5-0.1 1-0.2 1.5-0.3v2c-0.9 0.1-1.6 0.5-2.3 1l-1.4-1.4c0.4-0.3 0.8-0.6 1.3-0.9l0.3 0.9zM13.3 4.6l-0.9 0.4 0.4 0.9 0.9-0.4c0.1 0.5 0.2 1 0.3 1.5h-2c-0.1-0.9-0.4-1.6-1-2.3l-1.4 1.4c0.2 0.4 0.4 0.9 0.4 1.4 0 1.4-1.1 2.5-2.5 2.5s-2.5-1.1-2.5-2.5c0-1.4 1.1-2.5 2.5-2.5 0.5 0 1 0.2 1.4 0.4l1.4-1.4c-0.7-0.5-1.4-0.9-2.3-1v-2c0.5 0 1 0.1 1.5 0.3l-0.4 0.9 0.9 0.4 0.4-0.9c0.5 0.2 0.9 0.5 1.3 0.9l-1.4 1.4 0.7 0.7 1.4-1.4c0.4 0.4 0.7 0.8 0.9 1.3zM1.7 10.4l0.9-0.4-0.4-0.9-0.9 0.4c-0.1-0.5-0.2-1-0.3-1.5h2c0.1 0.9 0.5 1.6 1 2.3l-1.4 1.4c-0.4-0.4-0.7-0.8-0.9-1.3z"/>
<path fill="#cccccc" d="M9 7.5c0 0.828-0.672 1.5-1.5 1.5s-1.5-0.672-1.5-1.5c0-0.828 0.672-1.5 1.5-1.5s1.5 0.672 1.5 1.5z"/>
</svg>
