<?xml version="1.0" encoding="UTF-8"?>
<svg width="72px" height="72px" viewBox="0 0 72 72" version="1.1" xmlns="http://www.w3.org/2000/svg" xmlns:xlink="http://www.w3.org/1999/xlink">
    <!-- Generator: Sketch 50.2 (55047) - http://www.bohemiancoding.com/sketch -->
    <title>copy link</title>
    <desc>Created with Sketch.</desc>
    <defs></defs>
    <g id="copy-link" stroke="none" stroke-width="1" fill="none" fill-rule="evenodd">
        <g id="Group-9">
            <circle id="Oval-Copy-2" fill="#0090FF" cx="36" cy="36" r="36"></circle>
            <rect id="Rectangle-7" stroke="#979797" fill="#D8D8D8" opacity="0" x="17" y="17" width="39" height="39"></rect>
            <path d="M51.5344242,20.4567273 C48.2581414,17.1804445 42.9267475,17.1817374 39.6498182,20.4567273 L33.7075152,26.3990303 C33.2026263,26.9039192 33.2026263,27.7223435 33.7075152,28.2272323 C34.212404,28.7321212 35.0308283,28.7321212 35.5357172,28.2272323 L41.4780202,22.2849293 C42.5711919,21.1924041 44.032202,20.589899 45.5914747,20.589899 C47.1513939,20.589899 48.612404,21.1924041 49.7055758,22.2855758 C50.7987475,23.3787475 51.4012525,24.8397576 51.4012525,26.3996768 C51.4012525,27.9589495 50.7987475,29.4199596 49.7055758,30.5131313 L41.9357172,38.2849293 C39.6666263,40.5527273 35.9759596,40.5527273 33.7068687,38.2849293 C33.2019798,37.7800404 32.3835556,37.7800404 31.8786667,38.2849293 C31.3737778,38.7898182 31.3737778,39.6088889 31.8786667,40.1131313 C33.5168081,41.7512728 35.6688889,42.5703435 37.8209697,42.5703435 C39.9730505,42.5703435 42.1251313,41.7512728 43.7632727,40.1131313 L51.5344242,32.3419798 C53.1163232,30.7607273 53.9877576,28.6500202 53.9877576,26.3996768 C53.9877576,24.1486869 53.1163232,22.0386263 51.5344242,20.4567273 Z" id="Shape" fill="#FFFFFF" fill-rule="nonzero"></path>
            <path d="M35.5379394,44.7992727 L30.5097374,49.8274748 C29.4165657,50.9206465 27.9555556,51.5231515 26.3956364,51.5231515 C24.8363636,51.5231515 23.3747071,50.9206465 22.2815354,49.8274748 C20.0130909,47.5590303 20.0130909,43.8677172 22.2815354,41.5992727 L29.5956364,34.2851717 C30.6888081,33.1926465 32.1498182,32.5901414 33.7097374,32.5901414 C35.2690101,32.5901414 36.7300202,33.1926465 37.8231919,34.2851717 C38.3280808,34.7900606 39.1465051,34.7900606 39.6513939,34.2851717 C40.1562828,33.7802828 40.1562828,32.9618586 39.6513939,32.4569697 C36.3757576,29.1813333 31.0443636,29.1806869 27.7667879,32.4569697 L20.4526869,39.7717172 C18.8714343,41.3529697 18,43.4636768 18,45.7140202 C18,47.9637172 18.8714343,50.0744242 20.4533333,51.6556768 C22.0345859,53.2375758 24.1452929,54.1090101 26.3949899,54.1090101 C28.6453333,54.1090101 30.7560404,53.2375758 32.3372929,51.6556768 L37.3654949,46.6274748 C37.8703838,46.1225859 37.8703838,45.3041616 37.3654949,44.7992727 C36.8606061,44.2943838 36.0428283,44.2943838 35.5379394,44.7992727 Z" id="Shape" fill="#FFFFFF" fill-rule="nonzero"></path>
        </g>
    </g>
</svg>