<?xml version="1.0" encoding="UTF-8"?>
<svg width="72px" height="72px" viewBox="0 0 72 72" version="1.1" xmlns="http://www.w3.org/2000/svg" xmlns:xlink="http://www.w3.org/1999/xlink">
    <!-- Generator: Sketch 49 (51002) - http://www.bohemiancoding.com/sketch -->
    <title>facebook icon</title>
    <desc>Created with Sketch.</desc>
    <defs></defs>
    <g id="facebook-icon" stroke="none" stroke-width="1" fill="none" fill-rule="evenodd">
        <g id="004-facebook" transform="translate(4.000000, 4.000000)" fill="#475993" fill-rule="nonzero">
            <path d="M55.3468557,0 L8.61997066,0 C3.8595599,0 0.000312958435,3.85909046 0.000312958435,8.6196577 L0.000312958435,55.3468557 C0.000312958435,60.107423 3.85940342,63.9665134 8.61997066,63.9665134 L31.6654474,63.9665134 L31.7047237,41.1083423 L25.7661809,41.1083423 C24.9944254,41.1083423 24.3680391,40.4843032 24.365066,39.7125477 L24.3365868,32.3444108 C24.3336137,31.5684303 24.9618778,30.9378191 25.7378582,30.9378191 L31.6656039,30.9378191 L31.6656039,23.8183276 C31.6656039,15.5562249 36.7115892,11.0574474 44.0819169,11.0574474 L50.1298386,11.0574474 C50.9036284,11.0574474 51.53111,11.6847726 51.53111,12.4587188 L51.53111,18.6715697 C51.53111,19.4452029 50.9040978,20.0723716 50.130621,20.0728411 L46.4190905,20.0745623 C42.4108753,20.0745623 41.6347384,21.9792274 41.6347384,24.7744156 L41.6347384,30.9379756 L50.4421711,30.9379756 C51.2813692,30.9379756 51.9324792,31.6707677 51.8335844,32.504176 L50.9602738,39.872313 C50.8767139,40.5774083 50.2788068,41.1086553 49.5688606,41.1086553 L41.6740147,41.1086553 L41.6347384,63.9668264 L55.3471687,63.9668264 C60.1075795,63.9668264 63.9666699,60.1077359 63.9666699,55.3473252 L63.9666699,8.6196577 C63.9665134,3.85909046 60.107423,0 55.3468557,0 Z" id="Shape"></path>
        </g>
    </g>
</svg>