<?xml version="1.0" encoding="UTF-8"?>
<svg width="72px" height="72px" viewBox="0 0 72 72" version="1.1" xmlns="http://www.w3.org/2000/svg" xmlns:xlink="http://www.w3.org/1999/xlink">
    <!-- Generator: Sketch 50.2 (55047) - http://www.bohemiancoding.com/sketch -->
    <title>Group 3</title>
    <desc>Created with Sketch.</desc>
    <defs></defs>
    <g id="Coupon" stroke="none" stroke-width="1" fill="none" fill-rule="evenodd">
        <g id="Tablet---free-coupon-1" transform="translate(-268.000000, -1203.000000)">
            <g id="Group-3" transform="translate(268.000000, 1203.000000)">
                <circle id="Oval" fill="#3B5999" cx="36" cy="36" r="36"></circle>
                <g id="fb_white" transform="translate(16.000000, 16.000000)" fill="#FFFFFF" fill-rule="nonzero">
                    <path d="M29.0548163,2.22962015 L24.4440572,2.22222222 C19.2640275,2.22222222 15.9164647,5.65671067 15.9164647,10.9724924 L15.9164647,15.0069529 L11.2805526,15.0069529 C10.8799547,15.0069529 10.5555556,15.331722 10.5555556,15.7323198 L10.5555556,21.5777933 C10.5555556,21.9783911 10.8803246,22.3027903 11.2805526,22.3027903 L15.9164647,22.3027903 L15.9164647,37.0527808 C15.9164647,37.4533786 16.2408638,37.7777778 16.6414617,37.7777778 L22.6900083,37.7777778 C23.0906061,37.7777778 23.4150053,37.4530087 23.4150053,37.0527808 L23.4150053,22.3027903 L28.8354678,22.3027903 C29.2360656,22.3027903 29.5604648,21.9783911 29.5604648,21.5777933 L29.5626842,15.7323198 C29.5626842,15.5399737 29.4861156,15.3557652 29.3503636,15.2196434 C29.2146116,15.0835215 29.0296634,15.0069529 28.8373172,15.0069529 L23.4150053,15.0069529 L23.4150053,11.5868904 C23.4150053,9.94307063 23.8067256,9.10858426 25.9480561,9.10858426 L29.0540765,9.10747457 C29.4543045,9.10747457 29.7787037,8.78270549 29.7787037,8.38247754 L29.7787037,2.95461717 C29.7787037,2.55475912 29.4546744,2.23035994 29.0548163,2.22962015 Z" id="Shape"></path>
                </g>
            </g>
        </g>
    </g>
</svg>