<?xml version="1.0" encoding="UTF-8"?>
<svg width="72px" height="72px" viewBox="0 0 72 72" version="1.1" xmlns="http://www.w3.org/2000/svg" xmlns:xlink="http://www.w3.org/1999/xlink">
    <!-- Generator: Sketch 50.2 (55047) - http://www.bohemiancoding.com/sketch -->
    <title>Group 11</title>
    <desc>Created with Sketch.</desc>
    <defs></defs>
    <g id="Coupon" stroke="none" stroke-width="1" fill="none" fill-rule="evenodd">
        <g id="Tablet---free-coupon-1" transform="translate(-628.000000, -1203.000000)">
            <g id="Group-11" transform="translate(628.000000, 1203.000000)">
                <circle id="Oval-Copy-3" fill="#E4405F" cx="36" cy="36" r="36"></circle>
                <g id="ig_white" transform="translate(16.000000, 16.000000)" fill="#FFFFFF">
                    <g id="003-instagram" transform="translate(2.222222, 2.222222)">
                        <path d="M24.9196779,0 L10.5736554,0 C4.74331723,0 0,4.74331723 0,10.5736554 L0,24.9196779 C0,30.7500161 4.74331723,35.4933333 10.5736554,35.4933333 L24.9196779,35.4933333 C30.7500161,35.4933333 35.4933333,30.7500161 35.4933333,24.9196779 L35.4933333,10.5736554 C35.4932689,4.74331723 30.7499517,0 24.9196779,0 Z M31.9227053,24.9196779 C31.9227053,28.7873108 28.7873108,31.9227053 24.9196779,31.9227053 L10.5736554,31.9227053 C6.70602254,31.9227053 3.57062802,28.7873108 3.57062802,24.9196779 L3.57062802,10.5736554 C3.57062802,6.70595813 6.70602254,3.57062802 10.5736554,3.57062802 L24.9196779,3.57062802 C28.7873108,3.57062802 31.9227053,6.70595813 31.9227053,10.5736554 L31.9227053,24.9196779 Z" id="Shape" fill-rule="nonzero"></path>
                        <path d="M17.7466667,8.5668277 C12.6848953,8.5668277 8.5668277,12.6848953 8.5668277,17.7466023 C8.5668277,22.8083092 12.6848953,26.9264412 17.7466667,26.9264412 C22.808438,26.9264412 26.9265056,22.8083736 26.9265056,17.7466023 C26.9265056,12.6848309 22.808438,8.5668277 17.7466667,8.5668277 Z M17.7466667,23.3558776 C14.6487601,23.3558776 12.1374557,20.8445733 12.1374557,17.7466667 C12.1374557,14.6487601 14.6488245,12.1374557 17.7466667,12.1374557 C20.8445733,12.1374557 23.3558776,14.6487601 23.3558776,17.7466667 C23.3558776,20.8445089 20.8445089,23.3558776 17.7466667,23.3558776 Z" id="Shape" fill-rule="nonzero"></path>
                        <circle id="Oval" fill-rule="nonzero" cx="26.9442834" cy="8.63574879" r="2.19967794"></circle>
                    </g>
                </g>
            </g>
        </g>
    </g>
</svg>