<svg xmlns="http://www.w3.org/2000/svg" width="72" height="72" viewBox="0 0 72 72">
    <path fill="#AAA" fill-rule="nonzero" d="M5.13 34.852l14.747 5.531 5.708 18.448a1.733 1.733 0 0 0 2.757.834l8.22-6.734a2.443 2.443 0 0 1 2.99-.084l14.826 10.818a1.735 1.735 0 0 0 2.723-1.056l10.861-52.504c.28-1.354-1.044-2.484-2.327-1.985L5.113 31.584c-1.493.579-1.48 2.704.017 3.268zm19.535 2.587l28.821-17.84c.518-.32 1.051.385.606.8l-23.785 22.22a4.963 4.963 0 0 0-1.528 2.964l-.81 6.034c-.108.806-1.234.886-1.455.106L23.398 40.72a2.923 2.923 0 0 1 1.267-3.281z"/>
</svg>
