<?xml version="1.0" encoding="UTF-8"?>
<svg width="72px" height="72px" viewBox="0 0 72 72" version="1.1" xmlns="http://www.w3.org/2000/svg" xmlns:xlink="http://www.w3.org/1999/xlink">
    <!-- Generator: Sketch 50.2 (55047) - http://www.bohemiancoding.com/sketch -->
    <title>Group 10</title>
    <desc>Created with Sketch.</desc>
    <defs></defs>
    <g id="Coupon" stroke="none" stroke-width="1" fill="none" fill-rule="evenodd">
        <g id="Tablet---free-coupon-1" transform="translate(-508.000000, -1203.000000)">
            <g id="Group-10" transform="translate(508.000000, 1203.000000)">
                <circle id="Oval-Copy-2" fill="#0088CC" cx="36" cy="36" r="36"></circle>
                <g id="tlg_white" transform="translate(16.000000, 16.000000)" fill="#FFFFFF" fill-rule="nonzero">
                    <path d="M2.85023902,19.3621092 L11.0429609,22.4351053 L14.2140465,32.6840238 C14.4169505,33.3404301 15.2156478,33.5830539 15.7457818,33.1474745 L20.3125434,29.4060422 C20.7912403,29.0140565 21.4730782,28.9945228 21.9733455,29.3594708 L30.2101563,35.3693222 C30.7772682,35.7835811 31.5807063,35.471279 31.7229287,34.7825943 L37.7568329,5.61402478 C37.9120923,4.86173627 37.1765654,4.23415423 36.4637941,4.51120032 L2.84063901,17.5465402 C2.01088978,17.8681328 2.01811941,19.0487351 2.85023902,19.3621092 Z M13.702994,20.7992709 L29.7146298,10.8886202 C30.0023931,10.7110296 30.2984527,11.1020624 30.0513413,11.332418 L16.8371018,23.6768102 C16.3726271,24.1113175 16.0730119,24.6928046 15.9881525,25.3239599 L15.5380186,28.6763843 C15.4784037,29.1239936 14.8527436,29.168421 14.7298398,28.7352238 L12.9986375,22.6219864 C12.8003558,21.9247259 13.0893043,21.1799413 13.702994,20.7992709 Z" id="XMLID_497_"></path>
                </g>
            </g>
        </g>
    </g>
</svg>