<?xml version="1.0" encoding="UTF-8"?>
<svg width="72px" height="72px" viewBox="0 0 72 72" version="1.1" xmlns="http://www.w3.org/2000/svg" xmlns:xlink="http://www.w3.org/1999/xlink">
    <!-- Generator: Sketch 50.2 (55047) - http://www.bohemiancoding.com/sketch -->
    <title>Group 7</title>
    <desc>Created with Sketch.</desc>
    <defs></defs>
    <g id="Coupon" stroke="none" stroke-width="1" fill="none" fill-rule="evenodd">
        <g id="Tablet---free-coupon-1" transform="translate(-388.000000, -1203.000000)">
            <g id="Group-7" transform="translate(388.000000, 1203.000000)">
                <circle id="Oval-Copy" fill="#55ACEE" cx="36" cy="36" r="36"></circle>
                <g id="tw_white" transform="translate(16.000000, 16.000000)" fill="#FFFFFF">
                    <g id="twitter" transform="translate(2.222222, 5.555556)">
                        <path d="M35.5555556,3.38791745 C34.2333333,3.96247655 32.8244444,4.34331457 31.3555556,4.52823014 C32.8666667,3.63447154 34.02,2.22999375 34.5622222,0.53713571 C33.1533333,1.36925578 31.5977778,1.95702314 29.94,2.28502814 C28.6022222,0.873946216 26.6955556,0 24.6155556,0 C20.58,0 17.3311111,3.24482802 17.3311111,7.2227142 C17.3311111,7.79507192 17.38,8.34541588 17.5,8.86934334 C11.44,8.57656035 6.07777778,5.6993621 2.47555556,1.31642276 C1.84666667,2.39729831 1.47777778,3.63447154 1.47777778,4.96630394 C1.47777778,7.46706692 2.77777778,9.68385241 4.71555556,10.9672545 C3.54444444,10.9452408 2.39555556,10.6084303 1.42222222,10.0778987 C1.42222222,10.0999124 1.42222222,10.1285303 1.42222222,10.1571482 C1.42222222,13.6661413 3.94888889,16.580763 7.26222222,17.2521826 C6.66888889,17.4128831 6.02222222,17.4899312 5.35111111,17.4899312 C4.88444444,17.4899312 4.41333333,17.4635147 3.97111111,17.3666542 C4.91555556,20.2262414 7.59555556,22.3285553 10.7822222,22.396798 C8.30222222,24.3185991 5.15333333,25.4765228 1.74444444,25.4765228 C1.14666667,25.4765228 0.573333333,25.4501063 0,25.3774609 C3.22888889,27.4401501 7.05555556,28.6178862 11.1822222,28.6178862 C24.5955556,28.6178862 31.9288889,17.6110069 31.9288889,8.0702439 C31.9288889,7.7510444 31.9177778,7.44285178 31.9022222,7.13686054 C33.3488889,6.11982489 34.5644444,4.84963102 35.5555556,3.38791745 Z" id="Shape" fill-rule="nonzero"></path>
                    </g>
                </g>
            </g>
        </g>
    </g>
</svg>