<?xml version="1.0" encoding="UTF-8"?>
<svg width="72px" height="72px" viewBox="0 0 72 72" version="1.1" xmlns="http://www.w3.org/2000/svg" xmlns:xlink="http://www.w3.org/1999/xlink">
    <!-- Generator: Sketch 49 (51002) - http://www.bohemiancoding.com/sketch -->
    <title>twitter icon</title>
    <desc>Created with Sketch.</desc>
    <defs></defs>
    <g id="twitter-icon" stroke="none" stroke-width="1" fill="none" fill-rule="evenodd">
        <g id="twitter" transform="translate(4.000000, 10.000000)" fill="#03A9F4" fill-rule="nonzero">
            <path d="M64,6.09825141 C61.62,7.13245779 59.084,7.81796623 56.44,8.15081426 C59.16,6.54204878 61.236,4.01398874 62.212,0.966844278 C59.676,2.46466041 56.876,3.52264165 53.892,4.11305066 C51.484,1.57310319 48.052,0 44.308,0 C37.044,0 31.196,5.84069043 31.196,13.0008856 C31.196,14.0311295 31.284,15.0217486 31.5,15.964818 C20.592,15.4378086 10.94,10.2588518 4.456,2.36956098 C3.324,4.31513696 2.66,6.54204878 2.66,8.93934709 C2.66,13.4407205 5,17.4309343 8.488,19.7410582 C6.38,19.7014334 4.312,19.0951745 2.56,18.1402176 C2.56,18.1798424 2.56,18.2313546 2.56,18.2828668 C2.56,24.5990544 7.108,29.8453734 13.072,31.0539287 C12.004,31.3431895 10.84,31.4818762 9.632,31.4818762 C8.792,31.4818762 7.944,31.4343265 7.148,31.2599775 C8.848,36.4072345 13.672,40.1913996 19.408,40.3142364 C14.944,43.7734784 9.276,45.8577411 3.14,45.8577411 C2.064,45.8577411 1.032,45.8101914 0,45.6794296 C5.812,49.3922702 12.7,51.5121951 20.128,51.5121951 C44.272,51.5121951 57.472,31.6998124 57.472,14.526439 C57.472,13.9518799 57.452,13.3971332 57.424,12.846349 C60.028,11.0156848 62.216,8.72933583 64,6.09825141 Z" id="Shape"></path>
        </g>
    </g>
</svg>